:FULLY-SPECIFIED
:FORCE-ALL-JOINTS-BE-3DOF
:DEGREES
917
root 2.61027 16.038 32.431 2.67726 9.32416 363.458
lfemur -9.01613 3.76196 -3.30563
ltibia 21.24 0 0
lfoot -9.79986 -31.7889 0
ltoes 12.3268 0 0
rfemur -22.5721 -5.42247 -8.15369
rtibia 51.3142 0 0
rfoot 1.59653 -12.6194 0
rtoes -18.7541 0 0
lowerback -0.976554 -0.935875 -2.8858
upperback -0.823684 -1.21437 -5.63801
thorax -0.316373 -0.605427 -4.19201
lowerneck -7.01046 -3.65919 -0.450583
upperneck 4.0425 -5.17909 5.595
head 2.70661 -2.40036 1.64471
lclavicle -1.98031e-15 7.23138e-15 0
lhumerus -52.9023 -38.0591 107.618
lradius 58.721 0 0
lwrist 16.539 0 0
lhand 39.4804 24.0661 0
lfingers 7.12502 0 0
lthumb 61.7632 34.2989 0
rclavicle -1.98031e-15 7.23138e-15 0
rhumerus -52.471 36.6288 -81.5009
rradius 114.621 0 0
rwrist -6.93254 0 0
rhand 19.4778 -8.74818 0
rfingers 7.12502 0 0
rthumb 44.0244 -752.428 0
918
root 2.51439 16.006 32.4921 3.02398 8.21757 363.721
lfemur -7.41126 1.72924 -2.06523
ltibia 18.4727 0 0
lfoot -9.28039 -34.7177 0
ltoes 12.4882 0 0
rfemur -22.2773 -4.83088 -8.72749
rtibia 49.0266 0 0
rfoot 1.33163 -11.6241 0
rtoes -24.333 0 0
lowerback -1.43239 -0.843049 -2.84155
upperback -0.94218 -1.07095 -5.95679
thorax -0.188297 -0.535628 -4.55908
lowerneck -7.01605 -3.37181 -0.313107
upperneck 4.00915 -4.80891 5.64885
head 2.68037 -2.21295 1.65707
lclavicle -1.95425e-15 5.77212e-15 0
lhumerus -53.028 -38.135 107.387
lradius 58.5355 0 0
lwrist 16.8648 0 0
lhand 40.416 24.7631 0
lfingers 7.12502 0 0
lthumb 62.5591 34.1324 0
rclavicle -1.95425e-15 5.77212e-15 0
rhumerus -53.1505 38.7178 -80.1052
rradius 114.638 0 0
rwrist -6.6751 0 0
rhand 20.1532 -9.10106 0
rfingers 7.12502 0 0
rthumb 44.6566 -752.562 0
919
root 2.42514 15.9763 32.549 3.34671 7.18754 363.965
lfemur -5.91743 -0.162827 -0.910655
ltibia 15.897 0 0
lfoot -8.79686 -37.4438 0
ltoes 12.6384 0 0
rfemur -22.0029 -4.28022 -9.2616
rtibia 46.8973 0 0
rfoot 1.08507 -10.6976 0
rtoes -29.5259 0 0
lowerback -1.85669 -0.756645 -2.80036
upperback -1.05248 -0.93746 -6.25352
thorax -0.0690834 -0.470659 -4.90074
lowerneck -7.02125 -3.10432 -0.185143
upperneck 3.97811 -4.46435 5.69897
head 2.65594 -2.03851 1.66857
lclavicle -1.93e-15 4.41383e-15 0
lhumerus -53.1451 -38.2056 107.172
lradius 58.3627 0 0
lwrist 17.168 0 0
lhand 41.2869 25.4119 0
lfingers 7.12502 0 0
lthumb 63.2999 33.9775 0
rclavicle -1.93e-15 4.41383e-15 0
rhumerus -53.7829 40.6622 -78.806
rradius 114.655 0 0
rwrist -6.43548 0 0
rhand 20.7818 -9.42953 0
rfingers 7.12502 0 0
rthumb 45.2449 -752.687 0
920
root 2.34443 15.9494 32.6004 3.6386 6.25596 364.186
lfemur -4.56637 -1.87406 0.13357
ltibia 13.5674 0 0
lfoot -8.35954 -39.9093 0
ltoes 12.7743 0 0
rfemur -21.7547 -3.7822 -9.74466
rtibia 44.9716 0 0
rfoot 0.862067 -9.85969 0
rtoes -34.2225 0 0
lowerback -2.24044 -0.678499 -2.7631
upperback -1.15223 -0.816724 -6.52189
thorax 0.0387363 -0.411899 -5.20975
lowerneck -7.02595 -2.86239 -0.0694098
upperneck 3.95004 -4.15272 5.7443
head 2.63385 -1.88074 1.67897
lclavicle -1.90806e-15 3.18537e-15 0
lhumerus -53.2509 -38.2695 106.978
lradius 58.2065 0 0
lwrist 17.4422 0 0
lhand 42.0746 25.9987 0
lfingers 7.12502 0 0
lthumb 63.9699 33.8374 0
rclavicle -1.90806e-15 3.18537e-15 0
rhumerus -54.3549 42.4208 -77.631
rradius 114.67 0 0
rwrist -6.21876 0 0
rhand 21.3504 -9.7266 0
rfingers 7.12502 0 0
rthumb 45.7771 -752.801 0
921
root 2.27413 15.9259 32.6451 3.89278 5.44471 364.379
lfemur -3.38982 -3.36428 1.04293
ltibia 11.5386 0 0
lfoot -7.97871 -42.0564 0
ltoes 12.8926 0 0
rfemur -21.5386 -3.3485 -10.1653
rtibia 43.2945 0 0
rfoot 0.667869 -9.12999 0
rtoes -38.3125 0 0
lowerback -2.57462 -0.610446 -2.73066
upperback -1.2391 -0.711583 -6.75559
thorax 0.13263 -0.360728 -5.47885
lowerneck -7.03004 -2.6517 0.0313757
upperneck 3.92559 -3.88133 5.78378
head 2.61461 -1.74335 1.68803
lclavicle -1.88896e-15 2.11556e-15 0
lhumerus -53.3431 -38.3252 106.809
lradius 58.0705 0 0
lwrist 17.681 0 0
lhand 42.7605 26.5098 0
lfingers 7.12502 0 0
lthumb 64.5534 33.7153 0
rclavicle -1.88896e-15 2.11556e-15 0
rhumerus -54.853 43.9522 -76.6077
rradius 114.682 0 0
rwrist -6.03003 0 0
rhand 21.8456 -9.98531 0
rfingers 7.12502 0 0
rthumb 46.2405 -752.899 0
922
root 2.21616 15.9066 32.6821 4.10241 4.77565 364.537
lfemur -2.41949 -4.59329 1.79289
ltibia 9.86553 0 0
lfoot -7.66463 -43.8272 0
ltoes 12.9902 0 0
rfemur -21.3603 -2.99081 -10.5123
rtibia 41.9114 0 0
rfoot 0.50771 -8.52819 0
rtoes -41.6855 0 0
lowerback -2.85023 -0.554322 -2.7039
upperback -1.31074 -0.62487 -6.94833
thorax 0.210066 -0.318527 -5.70078
lowerneck -7.03342 -2.47795 0.114496
upperneck 3.90542 -3.65752 5.81634
head 2.59874 -1.63004 1.6955
lclavicle -1.8732e-15 1.23328e-15 0
lhumerus -53.4191 -38.3711 106.669
lradius 57.9583 0 0
lwrist 17.878 0 0
lhand 43.3262 26.9312 0
lfingers 7.12502 0 0
lthumb 65.0346 33.6147 0
rclavicle -1.8732e-15 1.23328e-15 0
rhumerus -55.2639 45.2152 -75.7638
rradius 114.693 0 0
rwrist -5.87439 0 0
rhand 22.2539 -10.1987 0
rfingers 7.12502 0 0
rthumb 46.6227 -752.98 0
923
root 2.17241 15.892 32.71 4.26064 4.27066 364.657
lfemur -1.68712 -5.5209 2.35894
ltibia 8.60271 0 0
lfoot -7.42757 -45.1637 0
ltoes 13.0638 0 0
rfemur -21.2258 -2.72085 -10.7741
rtibia 40.8675 0 0
rfoot 0.386827 -8.07398 0
rtoes -44.2314 0 0
lowerback -3.05825 -0.511961 -2.68371
upperback -1.36482 -0.559423 -7.09381
thorax 0.268513 -0.286675 -5.86829
lowerneck -7.03597 -2.3468 0.177232
upperneck 3.89021 -3.48859 5.84091
head 2.58676 -1.54451 1.70114
lclavicle -1.86131e-15 5.67356e-16 0
lhumerus -53.4765 -38.4057 106.564
lradius 57.8736 0 0
lwrist 18.0266 0 0
lhand 43.7532 27.2493 0
lfingers 7.12502 0 0
lthumb 65.3978 33.5387 0
rclavicle -1.86131e-15 5.67356e-16 0
rhumerus -55.5739 46.1685 -75.1269
rradius 114.701 0 0
rwrist -5.75691 0 0
rhand 22.5621 -10.3597 0
rfingers 7.12502 0 0
rthumb 46.9111 -753.042 0
